<svg width="537" height="242" viewBox="0 0 537 242" fill="none" xmlns="http://www.w3.org/2000/svg">
<path d="M0 221.5C0 210.5 120 201.5 267 201.5C415 201.5 534 210.5 534 221.5C534 232.5 415 241.5 267 241.5C120 241.5 0 232.5 0 221.5Z" fill="#EE7430"/>
<path d="M537 140.5H515V92.5H463V140.5H416L488 0.5H433L361 140.5V188.5H463V223.5H515V188.5H537V140.5Z" fill="#313131"/>
<path d="M157 129.5C157 59.5 214 3.5 283 3.5C353 3.5 409 59.5 409 129.5C409 166.5 393 200.5 368 223.5H199C173 200.5 157 166.5 157 129.5Z" fill="#616161"/>
<path d="M178 129.5C178 71.5 225 24.5 283 24.5C341 24.5 388 71.5 388 129.5C388 170.5 365 206.5 330 223.5H236C202 206.5 178 170.5 178 129.5Z" fill="#4F4D4E"/>
<path d="M283 41.5C235 41.5 195 81.5 195 129.5C195 178.5 235 217.5 283 217.5C332 217.5 371 178.5 371 129.5C371 81.5 332 41.5 283 41.5ZM283 219.5C234 219.5 194 178.5 194 129.5C194 80.5 234 40.5 283 40.5C333 40.5 373 80.5 373 129.5C373 178.5 333 219.5 283 219.5Z" fill="#777A7A"/>
<path d="M283 41.5C235 41.5 196 81.5 196 129.5C196 178.5 235 217.5 283 217.5C332 217.5 371 178.5 371 129.5C371 81.5 332 41.5 283 41.5ZM283 218.5C234 218.5 195 178.5 195 129.5C195 80.5 234 41.5 283 41.5C332 41.5 372 80.5 372 129.5C372 178.5 332 218.5 283 218.5Z" fill="#434344"/>
<path d="M283 18.5C222 18.5 172 68.5 172 129.5C172 168.5 193 203.5 223 223.5H221C190 203.5 170 168.5 170 129.5C170 67.5 221 16.5 283 16.5C346 16.5 396 67.5 396 129.5C396 168.5 376 203.5 346 223.5H343C374 203.5 395 168.5 395 129.5C395 68.5 345 18.5 283 18.5Z" fill="#777A7A"/>
<path d="M283 18.5C222 18.5 172 68.5 172 129.5C172 169.5 193 203.5 224 223.5H223C192 203.5 172 168.5 172 129.5C172 68.5 222 17.5 283 17.5C345 17.5 395 68.5 395 129.5C395 168.5 375 203.5 344 223.5H342C374 203.5 394 169.5 394 129.5C394 68.5 344 18.5 283 18.5Z" fill="#434344"/>
<path d="M350 222.5V223.5H351V222.5H350Z" fill="#4F4D4E"/>
<path d="M364 210.5L365 223.5H368C369 222.5 370 221.5 371 220.5L367 206.5L364 210.5Z" fill="#4F4D4E"/>
<path d="M372 202.5L374 217.5C374 216.5 375 216.5 376 215.5L372 201.5V202.5Z" fill="#4F4D4E"/>
<path d="M382 186.5L387 201.5C388 199.5 390 197.5 391 195.5L384 182.5L382 186.5Z" fill="#4F4D4E"/>
<path d="M387 177.5L394 190.5C394 190.5 394 189.5 395 188.5L388 176.5L387 177.5Z" fill="#4F4D4E"/>
<path d="M393 159.5L402 172.5C403 169.5 404 167.5 404 164.5L395 154.5L393 159.5Z" fill="#4F4D4E"/>
<path d="M396 148.5L406 160.5C406 159.5 406 158.5 406 157.5L397 147.5L396 148.5Z" fill="#4F4D4E"/>
<path d="M397 129.5L409 139.5C409 137.5 409 134.5 409 132.5L397 124.5V129.5Z" fill="#4F4D4E"/>
<path d="M397 118.5L409 127.5C409 126.5 409 125.5 409 125.5L397 117.5V118.5Z" fill="#4F4D4E"/>
<path d="M393 100.5L407 107.5C407 104.5 406 102.5 406 99.5L392 95.5L393 100.5Z" fill="#4F4D4E"/>
<path d="M391 89.5L405 95.5C404 94.5 404 93.5 404 92.5L390 88.5L391 89.5Z" fill="#4F4D4E"/>
<path d="M382 72.5L397 75.5C396 73.5 395 71.5 394 68.5H380L382 72.5Z" fill="#4F4D4E"/>
<path d="M377 63.5L392 64.5C391 64.5 391 63.5 390 62.5H376L377 63.5Z" fill="#4F4D4E"/>
<path d="M364 49.5L379 47.5C378 46.5 376 44.5 374 42.5L361 45.5L364 49.5Z" fill="#4F4D4E"/>
<path d="M356 41.5L371 39.5C370 38.5 370 37.5 369 37.5L355 40.5L356 41.5Z" fill="#4F4D4E"/>
<path d="M340 30.5L355 25.5C353 24.5 351 23.5 349 21.5L336 28.5L340 30.5Z" fill="#4F4D4E"/>
<path d="M331 25.5L345 19.5C344 18.5 343 18.5 342 18.5L330 24.5L331 25.5Z" fill="#4F4D4E"/>
<path d="M313 19.5L326 10.5C323 10.5 321 9.5 319 8.5L308 18.5L313 19.5Z" fill="#4F4D4E"/>
<path d="M302 16.5L314 7.5C313 7.5 312 6.5 312 6.5L301 16.5H302Z" fill="#4F4D4E"/>
<path d="M283 15.5L294 3.5C291 3.5 289 3.5 286 3.5L279 15.5H283Z" fill="#4F4D4E"/>
<path d="M272 15.5L281 3.5C280 3.5 280 3.5 279 3.5L271 15.5H272Z" fill="#4F4D4E"/>
<path d="M254 19.5L261 5.5C258 5.5 256 6.5 253 7.5L249 20.5L254 19.5Z" fill="#4F4D4E"/>
<path d="M243 22.5L249 8.5C248 8.5 247 8.5 246 9.5L242 22.5H243Z" fill="#4F4D4E"/>
<path d="M226 30.5L229 15.5C227 16.5 225 17.5 223 19.5L222 33.5L226 30.5Z" fill="#4F4D4E"/>
<path d="M217 36.5L219 21.5C218 21.5 217 22.5 216 22.5V36.5H217Z" fill="#4F4D4E"/>
<path d="M203 48.5L202 33.5C200 35.5 198 36.5 196 38.5L199 52.5L203 48.5Z" fill="#4F4D4E"/>
<path d="M195 56.5L193 41.5C192 42.5 192 43.5 191 43.5L194 57.5L195 56.5Z" fill="#4F4D4E"/>
<path d="M185 72.5L180 57.5C178 59.5 177 61.5 176 64.5L182 76.5L185 72.5Z" fill="#4F4D4E"/>
<path d="M179 82.5L173 68.5C173 69.5 172 69.5 172 70.5L179 83.5V82.5Z" fill="#4F4D4E"/>
<path d="M173 100.5L165 87.5C164 89.5 163 91.5 162 94.5L172 104.5L173 100.5Z" fill="#4F4D4E"/>
<path d="M170 110.5L161 98.5C161 99.5 161 100.5 160 101.5L170 111.5V110.5Z" fill="#4F4D4E"/>
<path d="M169 129.5L158 119.5C157 121.5 157 124.5 157 126.5L169 134.5V129.5Z" fill="#4F4D4E"/>
<path d="M169 140.5L157 131.5C157 132.5 157 133.5 157 134.5L169 141.5V140.5Z" fill="#4F4D4E"/>
<path d="M173 159.5L159 152.5C160 154.5 160 157.5 161 159.5L174 163.5L173 159.5Z" fill="#4F4D4E"/>
<path d="M176 169.5L162 164.5C162 164.5 163 165.5 163 166.5L176 170.5V169.5Z" fill="#4F4D4E"/>
<path d="M185 186.5L169 183.5C170 185.5 172 188.5 173 190.5H187L185 186.5Z" fill="#4F4D4E"/>
<path d="M190 196.5L175 194.5C176 195.5 176 195.5 176 196.5L191 197.5L190 196.5Z" fill="#4F4D4E"/>
<path d="M203 210.5L187 211.5C189 213.5 190 214.5 192 216.5L206 213.5L203 210.5Z" fill="#4F4D4E"/>
<path d="M210 217.5L196 220.5L197 221.5L211 218.5L210 217.5Z" fill="#4F4D4E"/>
<path d="M197 129.5C197 81.5 236 43.5 283 43.5C331 43.5 370 81.5 370 129.5C370 177.5 331 215.5 283 215.5C236 215.5 197 177.5 197 129.5Z" fill="#313131"/>
<path d="M283 32.5C282 34.5 281 37.5 280 38.5C281 37.5 282 35.5 283 32.5C285 29.5 286 27.5 286 26.5C286 27.5 284 29.5 283 32.5Z" fill="#616161"/>
<path d="M277 32.5C276 35.5 275 37.5 275 38.5C275 37.5 276 35.5 277 32.5C279 29.5 279 27.5 280 26.5C279 27.5 278 29.5 277 32.5Z" fill="#616161"/>
<path d="M271 33.5C270 35.5 269 38.5 269 39.5C269 38.5 270 35.5 271 33.5C272 30.5 273 27.5 273 26.5C273 27.5 272 30.5 271 33.5Z" fill="#616161"/>
<path d="M265 33.5C264 36.5 263 39.5 263 40.5C264 39.5 264 36.5 265 34.5C266 31.5 267 28.5 267 27.5C266 28.5 266 31.5 265 33.5Z" fill="#616161"/>
<path d="M259 35.5C258 38.5 258 40.5 258 41.5C258 40.5 259 38.5 259 35.5C260 32.5 260 29.5 261 28.5C260 29.5 260 32.5 259 35.5Z" fill="#616161"/>
<path d="M253 37.5C253 39.5 252 42.5 252 43.5C253 42.5 253 40.5 253 37.5C254 34.5 254 31.5 254 30.5C254 31.5 253 34.5 253 37.5Z" fill="#616161"/>
<path d="M247 39.5C247 42.5 247 44.5 247 45.5C247 44.5 247 42.5 248 39.5C248 36.5 248 33.5 248 32.5C248 33.5 248 36.5 247 39.5Z" fill="#616161"/>
<path d="M236 44.5C236 47.5 237 49.5 237 51.5C237 49.5 237 47.5 237 44.5C237 41.5 236 38.5 236 37.5C236 38.5 236 41.5 236 44.5Z" fill="#616161"/>
<path d="M231 47.5C231 50.5 232 52.5 232 54.5C232 52.5 232 50.5 231 47.5C231 44.5 231 41.5 230 40.5C230 41.5 231 44.5 231 47.5Z" fill="#616161"/>
<path d="M226 50.5C226 53.5 227 56.5 227 57.5C227 56.5 227 53.5 226 50.5C226 47.5 225 45.5 225 44.5C225 45.5 225 47.5 226 50.5Z" fill="#616161"/>
<path d="M221 54.5C222 57.5 222 60.5 223 61.5C223 59.5 222 57.5 221 54.5C221 51.5 220 49.5 220 48.5C220 49.5 220 51.5 221 54.5Z" fill="#616161"/>
<path d="M217 58.5C217 61.5 218 63.5 219 65.5C218 63.5 218 61.5 217 58.5C216 55.5 215 53.5 215 52.5C215 53.5 216 55.5 217 58.5Z" fill="#616161"/>
<path d="M212 63.5C213 65.5 214 68.5 215 69.5C214 68.5 214 65.5 213 62.5C212 60.5 211 57.5 210 56.5C210 57.5 211 60.5 212 63.5Z" fill="#616161"/>
<path d="M208 67.5C209 70.5 210 72.5 211 73.5C211 72.5 210 70.5 209 67.5C207 64.5 206 62.5 206 61.5C206 62.5 207 64.5 208 67.5Z" fill="#616161"/>
<path d="M204 72.5C206 75.5 207 77.5 208 78.5C207 77.5 206 74.5 205 72.5C203 69.5 202 67.5 202 66.5C202 67.5 203 69.5 204 72.5Z" fill="#616161"/>
<path d="M201 77.5C203 80.5 204 82.5 205 83.5C204 82.5 203 79.5 201 77.5C200 74.5 198 72.5 198 71.5C198 72.5 199 75.5 201 77.5Z" fill="#616161"/>
<path d="M198 82.5C200 85.5 201 87.5 202 88.5C201 87.5 200 85.5 198 82.5C197 80.5 195 78.5 194 77.5C195 78.5 196 80.5 198 82.5Z" fill="#616161"/>
<path d="M195 88.5C197 90.5 199 92.5 199 93.5C199 92.5 197 90.5 195 88.5C194 85.5 192 83.5 191 82.5C192 83.5 193 85.5 195 88.5Z" fill="#616161"/>
<path d="M193 93.5C195 96.5 196 97.5 197 98.5C197 97.5 195 95.5 193 93.5C191 91.5 189 89.5 188 88.5C189 89.5 191 91.5 193 93.5Z" fill="#616161"/>
<path d="M191 99.5C193 101.5 195 103.5 196 104.5C195 103.5 193 101.5 191 99.5C189 97.5 187 95.5 186 94.5C187 95.5 189 97.5 191 99.5Z" fill="#616161"/>
<path d="M189 105.5C191 107.5 193 109.5 194 109.5C193 108.5 191 107.5 189 105.5C187 103.5 185 101.5 184 101.5C185 101.5 187 103.5 189 105.5Z" fill="#616161"/>
<path d="M188 111.5C190 113.5 192 114.5 193 115.5C192 114.5 190 113.5 188 111.5C186 109.5 183 107.5 182 107.5C183 108.5 185 109.5 188 111.5Z" fill="#616161"/>
<path d="M187 117.5C189 119.5 191 120.5 192 121.5C191 120.5 189 118.5 187 117.5C184 115.5 182 114.5 181 113.5C182 114.5 184 115.5 187 117.5Z" fill="#616161"/>
<path d="M186 123.5C189 125.5 191 126.5 192 126.5C191 126.5 189 124.5 186 123.5C184 121.5 181 120.5 180 120.5C181 120.5 184 122.5 186 123.5Z" fill="#616161"/>
<path d="M186 129.5C189 131.5 191 132.5 192 132.5C191 131.5 189 130.5 186 129.5C183 128.5 181 127.5 180 126.5C181 127.5 183 128.5 186 129.5Z" fill="#616161"/>
<path d="M186 135.5C189 137.5 191 137.5 192 138.5C191 137.5 189 136.5 186 135.5C184 134.5 181 133.5 180 133.5C181 133.5 183 134.5 186 135.5Z" fill="#616161"/>
<path d="M187 141.5C190 142.5 192 143.5 193 144.5C192 143.5 190 142.5 187 141.5C184 140.5 182 139.5 180 139.5C182 140.5 184 141.5 187 141.5Z" fill="#616161"/>
<path d="M188 148.5C191 148.5 193 149.5 194 149.5C193 149.5 191 148.5 188 147.5C185 146.5 182 146.5 181 146.5C182 146.5 185 147.5 188 148.5Z" fill="#616161"/>
<path d="M189 153.5C192 154.5 194 155.5 196 155.5C195 154.5 192 154.5 189 153.5C186 152.5 184 152.5 183 152.5C184 152.5 186 153.5 189 153.5Z" fill="#616161"/>
<path d="M191 159.5C194 160.5 196 160.5 197 160.5C196 160.5 194 159.5 191 159.5C188 159.5 185 158.5 184 158.5C185 158.5 188 159.5 191 159.5Z" fill="#616161"/>
<path d="M193 165.5C196 165.5 198 166.5 200 165.5C198 165.5 196 165.5 193 165.5C190 164.5 187 164.5 186 164.5C187 165.5 190 165.5 193 165.5Z" fill="#616161"/>
<path d="M195 171.5C198 171.5 201 171.5 202 171.5C201 171.5 198 170.5 195 170.5C192 170.5 190 170.5 189 170.5C190 171.5 192 171.5 195 171.5Z" fill="#616161"/>
<path d="M201 181.5C204 181.5 207 181.5 208 181.5C207 181.5 204 181.5 201 181.5C198 181.5 196 182.5 195 182.5C196 182.5 198 182.5 201 181.5Z" fill="#616161"/>
<path d="M205 186.5C208 186.5 210 185.5 211 185.5C210 185.5 208 186.5 205 186.5C202 187.5 199 187.5 198 187.5C199 187.5 202 187.5 205 186.5Z" fill="#616161"/>
<path d="M208 191.5C211 191.5 214 190.5 215 190.5C214 190.5 211 190.5 208 191.5C205 192.5 203 192.5 202 193.5C203 192.5 206 192.5 208 191.5Z" fill="#616161"/>
<path d="M212 196.5C215 195.5 218 194.5 219 194.5C218 194.5 215 195.5 212 196.5C209 196.5 207 197.5 206 198.5C207 197.5 210 197.5 212 196.5Z" fill="#616161"/>
<path d="M217 200.5C220 199.5 222 198.5 223 198.5C222 198.5 219 199.5 217 200.5C214 201.5 212 202.5 210 202.5C212 202.5 214 201.5 217 200.5Z" fill="#616161"/>
<path d="M221 204.5C224 203.5 226 202.5 227 201.5C226 202.5 224 203.5 221 204.5C219 205.5 216 206.5 215 207.5C216 206.5 219 205.5 221 204.5Z" fill="#616161"/>
<path d="M226 208.5C229 207.5 231 205.5 232 205.5C231 205.5 229 206.5 226 208.5C223 209.5 221 210.5 220 211.5C221 210.5 224 209.5 226 208.5Z" fill="#616161"/>
<path d="M260 223.5C262 221.5 263 219.5 264 218.5C263 219.5 261 221.5 259 223.5H260Z" fill="#616161"/>
<path d="M267 223.5C268 221.5 269 220.5 269 219.5C269 220.5 267 221.5 266 223.5H267Z" fill="#616161"/>
<path d="M273 223.5C274 222.5 275 221.5 275 220.5C274 221.5 274 222.5 273 223.5Z" fill="#616161"/>
<path d="M279 223.5C280 222.5 280 221.5 281 220.5C280 221.5 280 222.5 279 223.5Z" fill="#616161"/>
<path d="M285 223.5C286 222.5 286 221.5 286 220.5C286 221.5 286 222.5 285 223.5Z" fill="#616161"/>
<path d="M291 223.5C291 222.5 292 221.5 292 220.5C292 221.5 291 222.5 291 223.5Z" fill="#616161"/>
<path d="M297 223.5C297 221.5 298 220.5 298 219.5C297 220.5 297 221.5 296 223.5H297Z" fill="#616161"/>
<path d="M302 223.5C303 221.5 303 219.5 303 218.5C303 219.5 302 221.5 302 223.5Z" fill="#616161"/>
<path d="M346 204.5C345 201.5 344 199.5 344 198.5C344 199.5 344 201.5 345 204.5C346 207.5 347 209.5 347 211.5C347 209.5 346 207.5 346 204.5Z" fill="#616161"/>
<path d="M350 200.5C349 197.5 348 195.5 348 194.5C348 195.5 349 197.5 350 200.5C351 203.5 351 205.5 352 206.5C352 205.5 351 203.5 350 200.5Z" fill="#616161"/>
<path d="M354 196.5C353 193.5 352 190.5 352 189.5C352 191.5 353 193.5 354 196.5C355 199.5 356 201.5 357 202.5C356 201.5 355 198.5 354 196.5Z" fill="#616161"/>
<path d="M358 191.5C357 188.5 356 186.5 356 185.5C356 186.5 357 188.5 358 191.5C359 194.5 360 196.5 361 197.5C361 196.5 360 194.5 358 191.5Z" fill="#616161"/>
<path d="M362 186.5C361 184.5 360 181.5 359 180.5C359 181.5 361 184.5 362 186.5C363 189.5 365 191.5 365 192.5C365 191.5 364 189.5 362 186.5Z" fill="#616161"/>
<path d="M366 181.5C364 179.5 363 176.5 362 175.5C363 177.5 364 179.5 365 181.5C367 184.5 368 186.5 369 187.5C368 186.5 367 184.5 366 181.5Z" fill="#616161"/>
<path d="M369 176.5C367 173.5 366 171.5 365 170.5C365 171.5 367 174.5 368 176.5C370 179.5 372 181.5 372 181.5C372 180.5 370 178.5 369 176.5Z" fill="#616161"/>
<path d="M372 170.5C370 168.5 368 166.5 367 165.5C368 166.5 369 168.5 371 171.5C373 173.5 375 175.5 376 176.5C375 175.5 373 173.5 372 170.5Z" fill="#616161"/>
<path d="M374 165.5C372 163.5 370 161.5 369 160.5C370 161.5 372 163.5 374 165.5C376 167.5 377 169.5 378 170.5C378 169.5 376 167.5 374 165.5Z" fill="#616161"/>
<path d="M376 159.5C374 157.5 372 155.5 371 154.5C372 155.5 374 157.5 376 159.5C378 161.5 380 163.5 381 164.5C380 163.5 378 161.5 376 159.5Z" fill="#616161"/>
<path d="M378 153.5C375 151.5 373 150.5 373 149.5C373 150.5 375 151.5 377 153.5C380 155.5 382 157.5 383 158.5C382 157.5 380 155.5 378 153.5Z" fill="#616161"/>
<path d="M379 147.5C377 145.5 375 144.5 374 143.5C374 144.5 376 146.5 379 147.5C381 149.5 383 151.5 384 151.5C383 151.5 381 149.5 379 147.5Z" fill="#616161"/>
<path d="M380 141.5C378 139.5 375 138.5 374 138.5C375 138.5 377 140.5 380 141.5C382 143.5 384 144.5 385 145.5C385 144.5 382 143.5 380 141.5Z" fill="#616161"/>
<path d="M381 135.5C378 134.5 376 132.5 375 132.5C376 133.5 378 134.5 380 135.5C383 137.5 385 138.5 386 139.5C385 138.5 383 137.5 381 135.5Z" fill="#616161"/>
<path d="M381 129.5C378 128.5 376 127.5 375 126.5C376 127.5 378 128.5 381 129.5C383 131.5 386 132.5 387 132.5C386 131.5 383 130.5 381 129.5Z" fill="#616161"/>
<path d="M381 123.5C378 122.5 375 121.5 374 120.5C375 121.5 378 122.5 380 123.5C383 124.5 385 125.5 387 126.5C386 125.5 383 124.5 381 123.5Z" fill="#616161"/>
<path d="M380 117.5C377 116.5 375 115.5 374 115.5C375 115.5 377 116.5 380 117.5C383 118.5 385 119.5 386 119.5C385 119.5 383 118.5 380 117.5Z" fill="#616161"/>
<path d="M379 111.5C376 110.5 374 109.5 372 109.5C374 109.5 376 110.5 379 111.5C382 112.5 384 112.5 385 113.5C384 112.5 382 111.5 379 111.5Z" fill="#616161"/>
<path d="M378 105.5C375 104.5 372 104.5 371 103.5C372 104.5 375 104.5 378 105.5C380 106.5 383 106.5 384 106.5C383 106.5 381 105.5 378 105.5Z" fill="#616161"/>
<path d="M376 99.5C373 98.5 370 98.5 369 98.5C370 98.5 373 99.5 376 99.5C379 100.5 381 100.5 382 100.5C381 100.5 379 99.5 376 99.5Z" fill="#616161"/>
<path d="M374 93.5C371 93.5 368 93.5 367 93.5C368 93.5 371 93.5 374 93.5C377 94.5 379 94.5 380 94.5C379 94.5 377 93.5 374 93.5Z" fill="#616161"/>
<path d="M371 87.5C368 87.5 366 87.5 365 88.5C366 88.5 368 88.5 371 88.5C374 88.5 377 88.5 378 88.5C377 88.5 374 88.5 371 87.5Z" fill="#616161"/>
<path d="M369 82.5C366 82.5 363 82.5 362 82.5C363 83.5 366 83.5 369 82.5C372 82.5 374 82.5 375 82.5C374 82.5 372 82.5 369 82.5Z" fill="#616161"/>
<path d="M365 77.5C363 77.5 360 77.5 359 78.5C360 78.5 363 77.5 365 77.5C368 77.5 371 76.5 372 76.5C371 76.5 368 76.5 365 77.5Z" fill="#616161"/>
<path d="M362 72.5C359 72.5 357 73.5 355 73.5C357 73.5 359 73.5 362 72.5C365 72.5 368 71.5 369 71.5C367 71.5 365 71.5 362 72.5Z" fill="#616161"/>
<path d="M358 67.5C355 68.5 353 68.5 352 69.5C353 68.5 355 68.5 358 67.5C361 67.5 364 66.5 365 66.5C364 66.5 361 66.5 358 67.5Z" fill="#616161"/>
<path d="M354 62.5C351 63.5 349 64.5 348 64.5C349 64.5 351 64.5 354 63.5C357 62.5 360 61.5 361 61.5C360 61.5 357 61.5 354 62.5Z" fill="#616161"/>
<path d="M350 58.5C347 59.5 345 60.5 344 60.5C345 60.5 347 59.5 350 58.5C353 57.5 355 56.5 356 56.5C355 56.5 353 57.5 350 58.5Z" fill="#616161"/>
<path d="M345 54.5C343 55.5 340 56.5 339 57.5C340 56.5 343 55.5 345 54.5C348 53.5 350 52.5 351 51.5C350 52.5 348 53.5 345 54.5Z" fill="#616161"/>
<path d="M340 50.5C338 52.5 336 53.5 335 53.5C336 53.5 338 52.5 341 51.5C343 49.5 345 48.5 346 47.5C345 48.5 343 49.5 340 50.5Z" fill="#616161"/>
<path d="M335 47.5C333 48.5 331 50.5 330 50.5C331 50.5 333 49.5 336 47.5C338 46.5 340 44.5 341 43.5C340 44.5 338 45.5 335 47.5Z" fill="#616161"/>
<path d="M330 44.5C328 45.5 326 47.5 325 48.5C326 47.5 328 46.5 330 44.5C333 42.5 335 41.5 336 40.5C335 41.5 333 42.5 330 44.5Z" fill="#616161"/>
<path d="M325 41.5C322 43.5 320 44.5 320 45.5C320 45.5 323 43.5 325 41.5C327 39.5 329 38.5 330 37.5C329 38.5 327 39.5 325 41.5Z" fill="#616161"/>
<path d="M319 38.5C317 40.5 315 42.5 314 43.5C315 42.5 317 41.5 319 39.5C321 37.5 323 35.5 324 34.5C323 35.5 321 36.5 319 38.5Z" fill="#616161"/>
<path d="M313 36.5C311 39.5 309 40.5 309 41.5C310 41.5 311 39.5 314 37.5C316 35.5 317 33.5 318 32.5C317 33.5 315 34.5 313 36.5Z" fill="#616161"/>
<path d="M307 35.5C305 37.5 304 39.5 303 40.5C304 39.5 306 37.5 308 35.5C310 33.5 311 31.5 312 30.5C311 31.5 309 32.5 307 35.5Z" fill="#616161"/>
<path d="M301 33.5C300 36.5 298 38.5 298 39.5C298 38.5 300 36.5 302 34.5C304 31.5 305 29.5 306 28.5C305 29.5 303 31.5 301 33.5Z" fill="#616161"/>
<path d="M295 32.5C294 35.5 292 37.5 292 38.5C293 37.5 294 35.5 296 33.5C297 30.5 299 28.5 299 27.5C298 28.5 297 30.5 295 32.5Z" fill="#616161"/>
<path d="M289 32.5C288 34.5 287 37.5 286 38.5C287 37.5 288 35.5 290 32.5C291 29.5 292 27.5 293 26.5C292 27.5 291 29.5 289 32.5Z" fill="#616161"/>
<path d="M214 118.5C220 120.5 231 124.5 238 127.5L250 131.5C257 134.5 259 141.5 255 147.5L248 158.5C244 164.5 237 174.5 234 179.5C230 185.5 224 185.5 219 180.5C219 180.5 210 168.5 206 154.5C201 141.5 202 126.5 202 126.5C202 119.5 208 115.5 214 118.5ZM215 84.5C215 84.5 224 71.5 235 63.5C247 55.5 261 50.5 261 50.5C268 49.5 273 53.5 273 59.5C272 66.5 272 77.5 272 85.5L271 98.5C271 105.5 264 110.5 257 108.5L245 104.5C238 102.5 227 99.5 220 97.5C214 96.5 212 89.5 215 84.5ZM292 162.5L300 172.5C304 178.5 312 187.5 316 192.5C320 197.5 318 203.5 312 206.5C312 206.5 298 211.5 283 211.5C269 211.5 255 206.5 255 206.5C249 203.5 247 197.5 251 192.5C255 187.5 262 178.5 267 172.5L275 162.5C280 156.5 287 156.5 292 162.5ZM306 50.5C306 50.5 320 55.5 331 63.5C343 71.5 351 84.5 351 84.5C355 89.5 353 96.5 346 97.5C340 99.5 329 102.5 322 104.5L309 108.5C302 110.5 296 105.5 296 98.5L295 85.5C295 77.5 294 66.5 294 59.5C294 53.5 299 49.5 306 50.5ZM365 126.5C365 126.5 365 141.5 361 154.5C357 168.5 348 180.5 348 180.5C343 185.5 337 185.5 333 179.5C329 174.5 323 164.5 319 158.5L312 147.5C308 141.5 310 134.5 317 131.5L329 127.5C336 124.5 347 120.5 353 118.5C359 115.5 364 119.5 365 126.5ZM283 215.5C331 215.5 370 177.5 370 129.5C370 81.5 331 43.5 283 43.5C236 43.5 197 81.5 197 129.5C197 177.5 236 215.5 283 215.5Z" fill="#E0E0E0"/>
<path d="M278 109.5C278 106.5 281 104.5 283 104.5C286 104.5 288 106.5 288 109.5C288 112.5 286 114.5 283 114.5C281 114.5 278 112.5 278 109.5Z" fill="#4F4D4E"/>
<path d="M281 109.5C281 107.5 282 106.5 283 106.5C285 106.5 286 107.5 286 109.5C286 110.5 285 112.5 283 112.5C282 112.5 281 110.5 281 109.5Z" fill="#BBBBBB"/>
<path d="M282 109.5C282 108.5 282 107.5 283 107.5C284 107.5 285 108.5 285 109.5C285 110.5 284 110.5 283 110.5C282 110.5 282 110.5 282 109.5Z" fill="#E0E0E0"/>
<path d="M263 128.5C260 127.5 259 124.5 259 121.5C260 119.5 263 117.5 266 118.5C268 119.5 270 122.5 269 124.5C268 127.5 265 128.5 263 128.5Z" fill="#4F4D4E"/>
<path d="M263 125.5C262 125.5 261 123.5 261 122.5C262 121.5 263 120.5 265 120.5C266 121.5 267 122.5 267 124.5C266 125.5 265 126.5 263 125.5Z" fill="#BBBBBB"/>
<path d="M264 124.5C263 124.5 262 123.5 263 122.5C263 122.5 264 121.5 265 121.5C265 122.5 266 123.5 266 123.5C265 124.5 264 125.5 264 124.5Z" fill="#E0E0E0"/>
<path d="M275 148.5C274 151.5 271 151.5 269 149.5C266 148.5 266 145.5 267 143.5C269 140.5 272 140.5 274 142.5C276 143.5 277 146.5 275 148.5Z" fill="#4F4D4E"/>
<path d="M274 147.5C273 148.5 271 149.5 270 148.5C269 147.5 268 145.5 269 144.5C270 143.5 272 142.5 273 143.5C274 144.5 275 146.5 274 147.5Z" fill="#BBBBBB"/>
<path d="M273 146.5C272 147.5 271 147.5 271 147.5C270 146.5 270 145.5 270 145.5C271 144.5 272 144.5 272 144.5C273 145.5 273 146.5 273 146.5Z" fill="#E0E0E0"/>
<path d="M299 143.5C301 145.5 300 148.5 298 149.5C296 151.5 293 151.5 291 148.5C290 146.5 290 143.5 292 142.5C295 140.5 298 140.5 299 143.5Z" fill="#4F4D4E"/>
<path d="M297 144.5C298 145.5 298 147.5 297 148.5C296 149.5 294 148.5 293 147.5C292 146.5 292 144.5 294 143.5C295 142.5 297 143.5 297 144.5Z" fill="#BBBBBB"/>
<path d="M296 145.5C297 145.5 297 146.5 296 147.5C295 147.5 294 147.5 294 146.5C293 146.5 294 145.5 294 144.5C295 144.5 296 144.5 296 145.5Z" fill="#E0E0E0"/>
<path d="M301 118.5C304 117.5 306 119.5 307 121.5C308 124.5 307 127.5 304 128.5C302 128.5 299 127.5 298 124.5C297 122.5 298 119.5 301 118.5Z" fill="#4F4D4E"/>
<path d="M302 120.5C303 120.5 305 121.5 305 122.5C306 123.5 305 125.5 303 125.5C302 126.5 300 125.5 300 124.5C299 122.5 300 121.5 302 120.5Z" fill="#BBBBBB"/>
<path d="M302 121.5C303 121.5 304 122.5 304 122.5C304 123.5 304 124.5 303 124.5C302 125.5 301 124.5 301 123.5C301 123.5 301 122.5 302 121.5Z" fill="#E0E0E0"/>
<path d="M295 129.5C295 136.5 290 141.5 283 141.5C277 141.5 271 136.5 271 129.5C271 123.5 277 117.5 283 117.5C290 117.5 295 123.5 295 129.5Z" fill="#616161"/>
<path d="M305 202.5C305 202.5 294 205.5 283 205.5C273 205.5 262 202.5 262 202.5C257 200.5 256 195.5 259 191.5C262 187.5 267 180.5 271 176.5L277 168.5C280 164.5 286 164.5 290 168.5L296 176.5C299 180.5 305 187.5 308 191.5C311 195.5 309 200.5 305 202.5ZM316 192.5C312 187.5 304 178.5 300 172.5L292 162.5C287 156.5 280 156.5 275 162.5L267 172.5C262 178.5 255 187.5 251 192.5C247 197.5 249 203.5 255 206.5C255 206.5 269 211.5 283 211.5C298 211.5 312 206.5 312 206.5C318 203.5 320 197.5 316 192.5Z" fill="#C3C2C2"/>
<path d="M359 131.5C359 131.5 359 142.5 356 153.5C353 163.5 346 172.5 346 172.5C342 176.5 337 176.5 335 171.5C332 167.5 327 160.5 324 155.5L319 147.5C316 143.5 317 137.5 323 135.5L332 132.5C337 130.5 345 127.5 350 125.5C354 123.5 358 126.5 359 131.5ZM353 118.5C347 120.5 336 124.5 329 127.5L317 131.5C310 134.5 308 141.5 312 147.5L319 158.5C323 164.5 329 174.5 333 179.5C337 185.5 343 185.5 348 180.5C348 180.5 357 168.5 361 154.5C365 141.5 365 126.5 365 126.5C364 119.5 359 115.5 353 118.5Z" fill="#C3C2C2"/>
<path d="M309 58.4999C309 58.4999 319 61.4999 328 67.4999C337 74.4999 343 83.4999 343 83.4999C346 87.4999 344 92.4999 339 93.4999C335 95.4999 326 97.4999 321 99.4999L312 101.5C306 103.5 301 99.4999 301 94.4999V84.4999C300 78.4999 300 70.4999 300 65.4999C300 60.4999 304 57.4999 309 58.4999ZM294 59.4999C294 66.4999 295 77.4999 295 85.4999L296 98.4999C296 105.5 302 110.5 309 108.5L322 104.5C329 102.5 340 99.4999 346 97.4999C353 96.4999 355 89.4999 351 84.4999C351 84.4999 343 71.4999 331 63.4999C320 55.4999 306 50.4999 306 50.4999C299 49.4999 294 53.4999 294 59.4999Z" fill="#C3C2C2"/>
<path d="M223 83.4999C223 83.4999 230 74.4999 238 67.4999C247 61.4999 258 58.4999 258 58.4999C263 57.4999 267 60.4999 267 65.4999C267 70.4999 266 78.4999 266 84.4999L265 94.4999C265 99.4999 261 103.5 255 101.5L246 99.4999C240 97.4999 232 95.4999 227 93.4999C222 92.4999 221 87.4999 223 83.4999ZM220 97.4999C227 99.4999 238 102.5 245 104.5L257 108.5C264 110.5 271 105.5 271 98.4999L272 85.4999C272 77.4999 272 66.4999 273 59.4999C273 53.4999 268 49.4999 261 50.4999C261 50.4999 247 55.4999 235 63.4999C224 71.4999 215 84.4999 215 84.4999C212 89.4999 214 96.4999 220 97.4999Z" fill="#C3C2C2"/>
<path d="M221 172.5C221 172.5 214 163.5 211 153.5C207 142.5 208 131.5 208 131.5C208 126.5 212 123.5 217 125.5C222 127.5 230 130.5 235 132.5L244 135.5C249 137.5 251 143.5 248 147.5L243 155.5C240 160.5 235 167.5 232 171.5C229 176.5 224 176.5 221 172.5ZM234 179.5C237 174.5 244 164.5 248 158.5L255 147.5C259 141.5 257 134.5 250 131.5L238 127.5C231 124.5 220 120.5 214 118.5C208 115.5 202 119.5 202 126.5C202 126.5 201 141.5 206 154.5C210 168.5 219 180.5 219 180.5C224 185.5 230 185.5 234 179.5Z" fill="#C3C2C2"/>
<path d="M292 129.5C292 134.5 288 138.5 283 138.5C279 138.5 275 134.5 275 129.5C275 124.5 279 120.5 283 120.5C288 120.5 292 124.5 292 129.5Z" fill="#313131"/>
<path d="M174 223.5C175 220.5 176 219.5 178 217.5C180 215.5 185 213.5 185 208.5C185 208.5 253 219.5 283 219.5V223.5H174Z" fill="#616161"/>
<path d="M283 219.5C267 219.5 242 215.5 221 213.5C221 213.5 226 217.5 234 219.5C241 221.5 270 222.5 283 222.5V219.5Z" fill="#4F4D4E"/>
<path d="M214 218.5C213 217.5 213 217.5 212 216.5C213 217.5 213 217.5 214 218.5Z" fill="#616161"/>
<path d="M235 223.5C232 222.5 230 222.5 229 221.5C227 221.5 225 220.5 222 220.5C219 219.5 216 219.5 214 218.5C213 217.5 213 217.5 212 216.5C211 216.5 211 215.5 211 215.5C210 213.5 208 212.5 208 211.5C207 211.5 206 211.5 206 211.5C206 211.5 207 212.5 209 214.5C210 215.5 210 215.5 210 216.5C211 217.5 211 218.5 214 219.5C215 220.5 217 220.5 219 220.5C222 221.5 225 221.5 226 222.5C227 222.5 228 222.5 230 223.5H235Z" fill="#777A7A"/>
<path d="M210 213.5C211 214.5 211 215.5 212 215.5C212 216.5 212 216.5 212 216.5C213 217.5 213 217.5 214 218.5C215 218.5 217 218.5 220 219.5C222 219.5 225 220.5 227 220.5C229 221.5 233 222.5 237 223.5H240C235 223.5 232 221.5 229 221.5C227 220.5 225 219.5 223 219.5C216 218.5 212 216.5 211 214.5C211 213.5 210 212.5 209 212.5C209 212.5 209 212.5 208 211.5C209 212.5 209 212.5 210 213.5Z" fill="#434344"/>
<path d="M227 220.5C225 220.5 222 219.5 220 219.5C217 218.5 215 218.5 214 218.5C216 219.5 219 219.5 222 220.5C225 220.5 227 221.5 229 221.5C230 222.5 232 222.5 235 223.5H237C233 222.5 229 221.5 227 220.5Z" fill="#434344"/>
<path d="M210 213.5C209 212.5 209 212.5 208 211.5C208 212.5 210 213.5 211 215.5C211 215.5 211 216.5 212 216.5C212 216.5 212 216.5 212 215.5C211 215.5 211 214.5 210 213.5Z" fill="#434344"/>
<path d="M198 210.5C198 210.5 193 210.5 192 211.5C192 212.5 189 216.5 189 216.5H194L197 213.5H202L204 211.5L198 210.5Z" fill="#4F4D4E"/>
<path d="M202 214.5L198 215.5L196 218.5H191L193 220.5L196 218.5L198 216.5L201 215.5H204L202 214.5Z" fill="#4F4D4E"/>
<path d="M392 223.5C392 220.5 390 219.5 388 217.5C386 215.5 382 213.5 382 208.5C382 208.5 313 219.5 283 219.5V223.5H392Z" fill="#616161"/>
<path d="M283 219.5C299 219.5 324 216.5 346 213.5C346 213.5 341 217.5 332 219.5C325 221.5 296 222.5 283 222.5V219.5Z" fill="#4F4D4E"/>
<path d="M353 218.5H352C353 217.5 354 217.5 354 216.5C354 217.5 353 217.5 353 218.5Z" fill="#616161"/>
<path d="M332 223.5C334 222.5 336 222.5 338 221.5C340 221.5 342 220.5 344 220.5C348 219.5 351 219.5 352 218.5H353C353 217.5 354 217.5 354 216.5C355 216.5 356 215.5 356 215.5C357 213.5 358 212.5 359 211.5C359 211.5 360 211.5 361 211.5C360 212.5 360 212.5 358 214.5C357 215.5 357 215.5 356 216.5C356 217.5 355 218.5 353 219.5C352 220.5 349 220.5 347 220.5C344 221.5 342 221.5 340 222.5C340 222.5 339 222.5 337 223.5H332Z" fill="#777A7A"/>
<path d="M357 213.5C356 214.5 355 215.5 355 215.5C355 216.5 354 216.5 354 216.5C354 217.5 353 217.5 352 218.5C351 218.5 349 218.5 347 219.5C344 219.5 341 220.5 339 220.5C337 221.5 334 222.5 330 223.5H327C332 223.5 335 221.5 338 221.5C340 220.5 342 219.5 344 219.5C351 218.5 354 216.5 355 214.5C356 213.5 357 212.5 358 212.5C358 212.5 357 212.5 357 213.5Z" fill="#434344"/>
<path d="M339 220.5C341 220.5 344 219.5 347 219.5C349 218.5 351 218.5 352 218.5C351 219.5 348 219.5 344 220.5C342 220.5 340 221.5 338 221.5C336 222.5 334 222.5 332 223.5H330C334 222.5 337 221.5 339 220.5Z" fill="#434344"/>
<path d="M357 213.5C357 212.5 358 212.5 358 212.5C358 211.5 359 211.5 359 211.5C358 212.5 357 213.5 356 215.5C356 215.5 355 216.5 354 216.5C354 216.5 355 216.5 355 215.5C355 215.5 356 214.5 357 213.5Z" fill="#434344"/>
<path d="M368 210.5C368 210.5 374 210.5 374 212.5L377 216.5H372L369 213.5H365L363 211.5L368 210.5Z" fill="#4F4D4E"/>
<path d="M364 214.5L368 215.5C369 215.5 371 218.5 371 218.5H375L374 220.5L371 218.5L368 216.5L366 215.5H363L364 214.5Z" fill="#4F4D4E"/>
<path d="M264 219.5L263 220.5C263 220.5 263 220.5 263 221.5C263 221.5 263 220.5 264 220.5C264 220.5 264 220.5 264 219.5C265 219.5 264 219.5 264 219.5C264 218.5 264 218.5 264 218.5H265H264C264 219.5 264 219.5 264 219.5Z" fill="#616161"/>
<path d="M268 220.5H267V221.5V220.5C268 220.5 268 220.5 268 220.5C268 219.5 268 219.5 268 219.5V218.5V219.5C268 219.5 268 219.5 268 220.5Z" fill="#616161"/>
<path d="M272 220.5V221.5C272 221.5 272 221.5 273 220.5C273 219.5 273 219.5 273 219.5C273 219.5 273 219.5 272 220.5Z" fill="#616161"/>
<path d="M280 220.5C280 220.5 280 220.5 280 221.5L281 220.5C281 219.5 281 219.5 281 219.5C280 219.5 280 220.5 280 220.5Z" fill="#616161"/>
<path d="M284 220.5V221.5C284 221.5 284 221.5 285 220.5C285 220.5 285 220.5 285 219.5C284 219.5 284 220.5 284 220.5Z" fill="#616161"/>
<path d="M288 220.5C287 221.5 287 221.5 287 221.5C288 221.5 288 221.5 288 220.5C288 220.5 288 220.5 289 220.5C289 219.5 289 219.5 289 219.5C289 219.5 289 220.5 288 220.5Z" fill="#616161"/>
<path d="M293 220.5C292 220.5 292 221.5 292 221.5L293 220.5C293 220.5 293 220.5 293 219.5C294 219.5 293 219.5 293 219.5C293 219.5 293 219.5 293 220.5Z" fill="#616161"/>
<path d="M298 219.5C298 220.5 298 220.5 298 220.5C298 221.5 298 221.5 298 221.5C298 221.5 298 221.5 298 220.5C298 220.5 298 220.5 299 219.5V218.5L298 219.5Z" fill="#616161"/>
<path d="M303 219.5C303 220.5 303 220.5 303 220.5C303 220.5 304 220.5 304 219.5C304 218.5 304 218.5 303 218.5C303 218.5 304 218.5 303 219.5Z" fill="#616161"/>
<path d="M230 211.5C232 209.5 234 208.5 235 207.5C234 208.5 231 209.5 229 211.5C228 212.5 227 212.5 227 214.5C227 214.5 227 215.5 226 215.5V216.5C226 216.5 226 216.5 227 215.5V214.5C227 213.5 229 212.5 230 211.5Z" fill="#616161"/>
<path d="M235 213.5C235 212.5 236 211.5 237 211.5C238 210.5 238 209.5 239 209.5C238 209.5 237 210.5 237 210.5C236 211.5 235 212.5 234 213.5C233 214.5 233 215.5 233 216.5C232 217.5 232 217.5 231 218.5C232 217.5 233 217.5 233 216.5C234 215.5 234 214.5 235 213.5Z" fill="#616161"/>
<path d="M240 215.5C241 213.5 243 212.5 243 211.5C243 212.5 241 213.5 240 214.5C240 215.5 240 215.5 239 216.5C239 216.5 239 216.5 239 217.5C238 217.5 238 218.5 237 218.5C238 218.5 238 218.5 239 217.5C239 217.5 239 216.5 240 216.5C240 215.5 240 215.5 240 215.5Z" fill="#616161"/>
<path d="M245 217.5C245 216.5 246 215.5 246 215.5C246 214.5 247 214.5 247 213.5C247 214.5 246 214.5 246 214.5C245 215.5 245 216.5 245 217.5C244 217.5 244 218.5 243 219.5C243 219.5 243 220.5 242 220.5C243 220.5 243 219.5 244 219.5C244 218.5 245 217.5 245 217.5Z" fill="#616161"/>
<path d="M251 217.5C251 216.5 252 215.5 252 215.5C251 215.5 251 216.5 250 217.5V218.5C250 218.5 250 218.5 250 219.5C250 218.5 250 218.5 251 217.5Z" fill="#616161"/>
<path d="M256 218.5C256 217.5 256 216.5 257 216.5C256 216.5 256 217.5 255 217.5C255 218.5 255 218.5 255 219.5C255 219.5 255 218.5 256 218.5Z" fill="#616161"/>
<path d="M341 209.5C341 206.5 340 203.5 339 202.5C339 203.5 340 206.5 341 209.5C341 212.5 342 215.5 341 216.5C341 215.5 342 214.5 342 213.5C342 212.5 341 210.5 341 209.5Z" fill="#616161"/>
<path d="M337 211.5C337 210.5 336 209.5 336 207.5C336 206.5 336 206.5 336 205.5C336 206.5 336 206.5 336 208.5C336 209.5 336 210.5 337 211.5C337 212.5 337 213.5 337 213.5C337 214.5 336 215.5 336 215.5C336 216.5 336 217.5 336 218.5C336 217.5 337 216.5 337 215.5C337 215.5 337 214.5 337 213.5C337 213.5 337 212.5 337 211.5Z" fill="#616161"/>
<path d="M333 213.5C332 210.5 332 208.5 332 207.5C332 208.5 332 210.5 332 213.5C332 214.5 332 214.5 332 215.5C332 216.5 332 216.5 332 217.5C332 218.5 332 219.5 332 219.5C332 219.5 332 218.5 332 217.5C332 216.5 333 216.5 333 215.5C333 214.5 333 214.5 333 213.5Z" fill="#616161"/>
<path d="M327 215.5C327 212.5 327 211.5 327 210.5C327 211.5 327 212.5 327 215.5C327 217.5 326 219.5 326 220.5C326 219.5 327 219.5 327 218.5C327 217.5 327 216.5 327 215.5Z" fill="#616161"/>
<path d="M322 217.5C322 215.5 322 213.5 322 213.5C322 213.5 322 215.5 322 217.5V218.5C321 218.5 321 218.5 321 218.5V219.5H322C322 220.5 322 220.5 322 220.5V219.5H321C321 219.5 321 218.5 322 218.5C322 218.5 322 218.5 322 217.5Z" fill="#616161"/>
<path d="M318 217.5C318 217.5 318 216.5 318 215.5V214.5V215.5C318 216.5 318 217.5 318 217.5C317 218.5 317 218.5 316 219.5V220.5V219.5C317 219.5 318 218.5 318 217.5Z" fill="#616161"/>
<path d="M312 218.5C313 217.5 313 217.5 313 216.5C313 216.5 313 216.5 313 215.5C313 216.5 313 216.5 313 216.5C313 217.5 312 217.5 312 218.5C312 218.5 312 219.5 311 219.5V220.5V219.5C312 219.5 312 218.5 312 218.5Z" fill="#616161"/>
<path d="M309 218.5L308 217.5C308 218.5 308 218.5 308 218.5C308 219.5 308 219.5 308 219.5C309 219.5 309 219.5 309 218.5Z" fill="#616161"/>
<path d="M176 140.5H154V92.5H102V140.5H55L126 0.5H71L0 140.5V188.5H102V223.5H154V188.5H176V140.5Z" fill="#313131"/>
</svg>
