<?xml version="1.0" encoding="utf-8"?>
<!-- Generator: Adobe Illustrator 23.1.0, SVG Export Plug-In . SVG Version: 6.00 Build 0)  -->
<svg version="1.1" id="Слой_1" xmlns="http://www.w3.org/2000/svg" xmlns:xlink="http://www.w3.org/1999/xlink" x="0px" y="0px"
	 viewBox="0 0 49 49" style="enable-background:new 0 0 49 49;" xml:space="preserve">
<style type="text/css">
	.st0{fill-rule:evenodd;clip-rule:evenodd;fill:#FF8351;fill-opacity:0.4;}
	.st1{fill:#F6805F;}
	.st2{fill:none;stroke:#F6805F;stroke-width:2.5128;stroke-miterlimit:10;}
</style>
<g id="Слой_x0020_1">
	<path class="st0" d="M24.5,0C38,0,49,11,49,24.5S38,49,24.5,49S0,38,0,24.5S11,0,24.5,0z"/>
	<path class="st1" d="M32,22c-0.9-1.3-2.2-2.2-3.8-2.8c-0.6-0.3-3.8-1.6-6.9,0c-1.6,0.6-2.8,1.6-3.8,2.8c-2.2,2.2-3.1,5.3-3.1,8.8
		v0.9c0,2.8,1.9,5,4.4,5h11.9c2.5,0,4.4-2.2,4.4-5v-0.9C35.2,27.3,33.9,24.2,32,22z M33.6,31.7c0,1.9-1.3,3.5-2.8,3.5H18.8
		c-1.6,0-3.1-1.6-3.1-3.5v-0.9c0-6,4.1-10.7,9.1-10.7s8.8,4.7,8.8,10.7V31.7z"/>
	<path class="st2" d="M17.3,12.6c4.7,5.7,9.4,5.3,14.1,0"/>
</g>
</svg>
