<?xml version="1.0" encoding="utf-8"?>
<!-- Generator: Adobe Illustrator 23.1.0, SVG Export Plug-In . SVG Version: 6.00 Build 0)  -->
<svg version="1.1" id="Слой_1" xmlns="http://www.w3.org/2000/svg" xmlns:xlink="http://www.w3.org/1999/xlink" x="0px" y="0px"
	 viewBox="0 0 49 49" style="enable-background:new 0 0 49 49;" xml:space="preserve">
<style type="text/css">
	.st0{fill-rule:evenodd;clip-rule:evenodd;fill:#FF8351;fill-opacity:0.4;}
	.st1{fill:#FF8351;}
</style>
<g id="Слой_x0020_1">
	<path class="st0" d="M24.5,0C38,0,49,11,49,24.5S38,49,24.5,49S0,38,0,24.5S11,0,24.5,0z"/>
	<path class="st1" d="M35.5,16.3h-1.9v-1.3c0-1.3-0.9-2.2-2.2-2.2c-1.3,0-2.2,0.9-2.2,2.2v1.3h-2.5v-1.3c0-1.3-0.9-2.2-2.2-2.2
		s-2.2,0.9-2.2,2.2v1.3h-2.5v-1.3c0-1.3-0.9-2.2-2.2-2.2s-2.2,0.9-2.2,2.2v1.3h-1.9c-0.6,0-0.9,0.3-0.9,0.6v17
		c0,1.6,1.3,2.8,3.1,2.8h17.6c1.9,0,3.1-1.3,3.1-2.8V17C36.4,16.6,36.1,16.3,35.5,16.3z M34.9,21H14.1v-3.1h1.3v0.3
		c0,1.3,0.9,2.2,2.2,2.2s2.2-0.9,2.2-2.2v-0.3h2.5v0.3c0,1.3,0.9,2.2,2.2,2.2s2.2-0.9,2.2-2.2v-0.3h2.5v0.3c0,1.3,0.9,2.2,2.2,2.2
		c1.3,0,2.2-0.9,2.2-2.2v-0.3h1.3C34.9,17.9,34.9,21,34.9,21z M30.8,15.1c0-0.6,0.3-0.9,0.6-0.9s0.6,0.3,0.6,0.9v3.1
		c0,0.3-0.3,0.6-0.6,0.6s-0.6-0.3-0.6-0.6C30.8,18.2,30.8,15.1,30.8,15.1z M23.9,15.1c0-0.6,0.3-0.9,0.6-0.9s0.6,0.3,0.6,0.9v3.1
		c0,0.3-0.3,0.6-0.6,0.6s-0.6-0.3-0.6-0.6C23.9,18.2,23.9,15.1,23.9,15.1z M17,15.1c0-0.6,0.3-0.9,0.6-0.9s0.6,0.3,0.6,0.9V17l0,0
		l0,0v1.3c0,0.3-0.3,0.6-0.6,0.6S17,18.5,17,18.2V15.1C17,15.1,17,15.1,17,15.1z M34.9,33.9c0,0.9-0.6,1.6-1.6,1.6H15.7
		c-0.9,0-1.6-0.6-1.6-1.6V22.3h20.7V33.9z"/>
	<path class="st1" d="M16.3,26.1h16.3c0.6,0,0.9-0.3,0.9-0.9c0-0.3-0.3-0.6-0.9-0.6H16.3c-0.6,0-0.9,0.3-0.9,0.6
		C15.4,25.8,15.7,26.1,16.3,26.1z"/>
</g>
</svg>
