<?xml version="1.0" encoding="UTF-8"?>
<!DOCTYPE svg PUBLIC "-//W3C//DTD SVG 1.1//EN" "http://www.w3.org/Graphics/SVG/1.1/DTD/svg11.dtd">
<!-- Creator: CorelDRAW X8 -->
<svg xmlns="http://www.w3.org/2000/svg" xml:space="preserve" width="90px" height="90px" version="1.1" style="shape-rendering:geometricPrecision; text-rendering:geometricPrecision; image-rendering:optimizeQuality; fill-rule:evenodd; clip-rule:evenodd"
viewBox="0 0 90 90"
 xmlns:xlink="http://www.w3.org/1999/xlink">
 <defs>
  <style type="text/css">
   <![CDATA[
    .str0 {stroke:#FEFEFE;stroke-width:2.95276}
    .fil1 {fill:#FEFEFE}
    .fil0 {fill:#FFCA0D}
   ]]>
  </style>
 </defs>
 <g id="Слой_x0020_1">
  <metadata id="CorelCorpID_0Corel-Layer"/>
  <g id="_2490790187440">
   <path class="fil0" d="M24 0l42 0c13,0 24,11 24,24l0 42c0,13 -11,24 -24,24l-42 0c-13,0 -24,-11 -24,-24l0 -42c0,-13 11,-24 24,-24z"/>
   <path class="fil1 str0" d="M69 64l-2 -31c0,-3 -2,-5 -5,-5l-9 0 0 -3c0,-4 -3,-8 -8,-8 -4,0 -8,4 -8,8l0 3 -9 0c-3,0 -5,2 -5,5l-2 31c0,2 0,4 2,6 1,2 4,3 6,3l32 0c3,0 5,-1 6,-3 2,-2 3,-4 2,-6l0 0zm-28 -39c0,-2 2,-4 4,-4 3,0 5,2 5,4l0 3 -9 0 0 -3 0 0zm24 43c-1,1 -2,1 -3,1l-33 0c-1,0 -2,0 -3,-1 -1,-1 -2,-3 -2,-4l3 -31c0,-1 0,-1 1,-1l9 0 0 4c0,1 1,1 2,1 1,0 2,0 2,-1l0 -4 9 0 0 4c0,1 1,1 2,1 0,0 1,0 1,-1l0 -4 10 0c1,0 1,0 1,1l3 31c0,1 -1,3 -2,4l0 0z"/>
  </g>
 </g>
</svg>
