<?xml version="1.0" encoding="UTF-8"?>
<!DOCTYPE svg PUBLIC "-//W3C//DTD SVG 1.1//EN" "http://www.w3.org/Graphics/SVG/1.1/DTD/svg11.dtd">
<!-- Creator: CorelDRAW X8 -->
<svg xmlns="http://www.w3.org/2000/svg" xml:space="preserve" width="90px" height="90px" version="1.1" style="shape-rendering:geometricPrecision; text-rendering:geometricPrecision; image-rendering:optimizeQuality; fill-rule:evenodd; clip-rule:evenodd"
viewBox="0 0 90 90"
 xmlns:xlink="http://www.w3.org/1999/xlink">
 <defs>
  <style type="text/css">
   <![CDATA[
    .fil1 {fill:#FEFEFE}
    .fil0 {fill:#5CBE86}
   ]]>
  </style>
 </defs>
 <g id="Слой_x0020_1">
  <metadata id="CorelCorpID_0Corel-Layer"/>
  <g id="_2490790235088">
   <path class="fil0" d="M24 0l42 0c13,0 24,11 24,24l0 42c0,13 -11,24 -24,24l-42 0c-13,0 -24,-11 -24,-24l0 -42c0,-13 11,-24 24,-24z"/>
   <g>
    <path class="fil1" d="M45 37c-2,0 -4,-2 -4,-4 0,-2 2,-4 4,-4 2,0 4,2 4,4 0,2 -2,4 -4,4l0 0zm4 -8z"/>
    <path class="fil1" d="M45 71c-15,0 -26,-11 -26,-26 0,-15 11,-26 26,-26 15,0 26,11 26,26 0,15 -11,26 -26,26l0 0zm0 -48c-12,0 -22,10 -22,22 0,12 10,22 22,22 12,0 22,-10 22,-22 0,-12 -10,-22 -22,-22l0 0z"/>
    <path class="fil1" d="M45 61c-2,0 -4,-2 -4,-4l0 -12c0,-2 2,-4 4,-4 2,0 4,2 4,4l0 12c0,2 -2,4 -4,4l0 0zm4 -20l0 0z"/>
   </g>
  </g>
 </g>
</svg>
