<?xml version="1.0" encoding="UTF-8"?>
<!DOCTYPE svg PUBLIC "-//W3C//DTD SVG 1.1//EN" "http://www.w3.org/Graphics/SVG/1.1/DTD/svg11.dtd">
<!-- Creator: CorelDRAW X8 -->
<svg xmlns="http://www.w3.org/2000/svg" xml:space="preserve" width="90px" height="90px" version="1.1" style="shape-rendering:geometricPrecision; text-rendering:geometricPrecision; image-rendering:optimizeQuality; fill-rule:evenodd; clip-rule:evenodd"
viewBox="0 0 90 90"
 xmlns:xlink="http://www.w3.org/1999/xlink">
 <defs>
  <style type="text/css">
   <![CDATA[
    .fil2 {fill:#FEFEFE}
    .fil0 {fill:#514EA1}
    .fil1 {fill:#FEFEFE;fill-opacity:0.000000}
   ]]>
  </style>
 </defs>
 <g id="Слой_x0020_1">
  <metadata id="CorelCorpID_0Corel-Layer"/>
  <g id="_2490840564432">
   <path class="fil0" d="M24 0l42 0c13,0 24,11 24,24l0 42c0,13 -11,24 -24,24l-42 0c-13,0 -24,-11 -24,-24l0 -42c0,-13 11,-24 24,-24z"/>
   <g id="checkmark-circle-2" data-name="checkmark-circle">
    <polygon class="fil1" points="14,76 76,76 76,14 14,14 "/>
    <path class="fil2" d="M39 43c0,0 -1,-1 -2,-1 -1,0 -2,2 -2,3 0,1 0,1 0,2l8 8c1,0 1,0 2,0 0,0 0,0 0,0l0 0c1,0 1,0 2,-1l18 -20c0,-1 1,-1 1,-2 0,-1 -2,-2 -3,-2 -1,0 -1,0 -2,0l-16 19 -6 -6z"/>
    <path class="fil2" d="M68 42l0 0c-1,0 -2,2 -2,3 0,11 -10,21 -21,21l0 0c-11,0 -21,-10 -21,-21 0,-5 2,-11 6,-15 4,-4 9,-6 15,-6 0,0 0,0 0,0 2,0 3,0 5,1 0,0 0,0 1,0 1,0 2,-1 2,-3 0,-1 -1,-2 -2,-2 -2,-1 -4,-1 -6,-1 -14,0 -26,12 -26,26 0,7 3,14 8,18 5,5 11,8 18,8l0 0c14,0 26,-12 26,-26 0,-1 -1,-3 -3,-3z"/>
   </g>
  </g>
 </g>
</svg>
