<svg width="42" height="42" viewBox="0 0 42 42" fill="none" xmlns="http://www.w3.org/2000/svg">
<g opacity="0.35">
<path d="M11.9915 37.9897C12.1917 37.9897 12.2918 37.9897 12.492 37.9897C12.492 37.9897 24.6054 37.9897 32.0136 37.9897" stroke="black" stroke-width="2" stroke-miterlimit="10" stroke-linecap="round" stroke-linejoin="round"/>
<path d="M38.0203 37.9897C39.8223 37.9897 40.4229 37.5883 40.8234 36.9863C41.2238 36.2839 40.9235 33.1733 40.1226 32.6716C39.4218 32.1699 34.7166 30.9658 30.7122 30.5644C28.1093 29.0593 25.0059 26.5508 23.1038 26.2498C21.2017 26.0491 14.1939 25.5474 11.4909 26.3501C8.7879 27.1528 7.28624 28.8586 6.08491 29.1597C5.28402 29.3603 3.88247 29.4607 2.98147 29.561C2.48092 29.561 2.08047 29.9624 1.88025 30.3638C1.47981 31.5679 0.779032 33.7754 1.07937 34.9795C1.47981 36.6853 1.88025 36.9863 3.08158 37.187C3.68225 37.2873 4.58325 37.488 6.08491 37.5883" stroke="black" stroke-width="2" stroke-miterlimit="10" stroke-linecap="round" stroke-linejoin="round"/>
<path d="M29.9107 31.2668C29.9107 31.2668 30.9107 35.3808 29.5107 37.9897" stroke="black" stroke-miterlimit="10" stroke-linecap="round" stroke-linejoin="round"/>
<path d="M35.4174 31.2668L10.4897 30.5645" stroke="black" stroke-miterlimit="10" stroke-linecap="round" stroke-linejoin="round"/>
<path d="M13.3931 26.0491C13.3931 26.0491 10.6901 28.8586 10.3898 30.5644C10.0895 32.5713 13.5933 33.374 14.194 36.2839C14.3942 37.187 13.8937 37.9897 13.8937 37.9897" stroke="black" stroke-miterlimit="10" stroke-linecap="round" stroke-linejoin="round"/>
<path d="M19.0994 25.9487C19.0994 25.9487 20.1005 31.3672 20.0004 33.675C19.9003 35.9829 19.7 37.8894 19.7 37.8894" stroke="black" stroke-miterlimit="10" stroke-linecap="round" stroke-linejoin="round"/>
<path d="M40.9235 34.3773C40.9235 34.3773 39.4218 34.3773 38.2205 33.8756" stroke="black" stroke-miterlimit="10" stroke-linecap="round" stroke-linejoin="round"/>
<path d="M1.07935 32.9727C1.98034 32.9727 2.68112 32.9727 3.58212 31.5679" stroke="black" stroke-miterlimit="10" stroke-linecap="round" stroke-linejoin="round"/>
<path d="M35.017 41C36.6757 41 38.0203 39.6522 38.0203 37.9897C38.0203 36.3272 36.6757 34.9795 35.017 34.9795C33.3583 34.9795 32.0137 36.3272 32.0137 37.9897C32.0137 39.6522 33.3583 41 35.017 41Z" stroke="black" stroke-width="2" stroke-miterlimit="10" stroke-linecap="round" stroke-linejoin="round"/>
<path d="M8.98819 41C10.6469 41 11.9915 39.6522 11.9915 37.9897C11.9915 36.3272 10.6469 34.9795 8.98819 34.9795C7.3295 34.9795 5.98486 36.3272 5.98486 37.9897C5.98486 39.6522 7.3295 41 8.98819 41Z" stroke="black" stroke-width="2" stroke-miterlimit="10" stroke-linecap="round" stroke-linejoin="round"/>
<path d="M10.4897 30.5641C10.4897 30.5641 9.88904 30.6641 8.98804 30.4641" stroke="black" stroke-miterlimit="10" stroke-linecap="round" stroke-linejoin="round"/>
<path d="M30.0114 12.9044C29.8112 12.9044 29.7111 12.9044 29.5109 12.9044C29.5109 12.9044 17.3975 12.9044 9.98926 12.9044" stroke="black" stroke-width="2" stroke-miterlimit="10" stroke-linecap="round" stroke-linejoin="round"/>
<path d="M3.98246 12.9043C2.18047 12.9043 1.5798 12.503 1.17936 11.9009C0.778915 11.0982 1.07925 7.98759 1.78002 7.58623C2.4808 7.18486 7.18601 5.88042 11.1904 5.47906C13.7933 3.97394 16.8968 1.4654 18.7989 1.16438C20.701 0.863351 32.2137 0.963692 35.7176 1.56574C36.5185 1.66608 39.9223 4.87701 40.1225 5.27837C40.5229 6.48247 41.2237 8.68998 40.9234 9.89408C40.5229 11.5999 40.1225 11.9009 38.9212 12.1016C38.3205 12.2019 37.4195 12.4026 35.9178 12.503" stroke="black" stroke-width="2" stroke-miterlimit="10" stroke-linecap="round" stroke-linejoin="round"/>
<path d="M12.0911 6.1814C12.0911 6.1814 11.0911 10.2954 12.4911 12.9043" stroke="black" stroke-miterlimit="10" stroke-linecap="round" stroke-linejoin="round"/>
<path d="M6.58545 6.18152L31.5131 5.47913" stroke="black" stroke-miterlimit="10" stroke-linecap="round" stroke-linejoin="round"/>
<path d="M28.71 1.16382C28.71 1.16382 31.1127 4.37474 31.5131 5.4785C31.8134 7.48533 28.3096 8.28806 27.7089 11.198C27.5087 12.101 28.0092 12.9038 28.0092 12.9038" stroke="black" stroke-miterlimit="10" stroke-linecap="round" stroke-linejoin="round"/>
<path d="M22.9035 1.06384C22.9035 1.06384 21.9024 6.2816 22.0025 8.68979C22.1026 11.098 22.3028 12.9041 22.3028 12.9041" stroke="black" stroke-miterlimit="10" stroke-linecap="round" stroke-linejoin="round"/>
<path d="M1.07935 9.29199C1.07935 9.29199 2.58101 9.29199 3.78234 8.79028" stroke="black" stroke-miterlimit="10" stroke-linecap="round" stroke-linejoin="round"/>
<path d="M40.9234 7.88733C40.1225 7.88733 39.5218 7.88733 38.7209 6.98425" stroke="black" stroke-miterlimit="10" stroke-linecap="round" stroke-linejoin="round"/>
<path d="M6.98599 15.9147C8.64468 15.9147 9.98932 14.5669 9.98932 12.9044C9.98932 11.2419 8.64468 9.89417 6.98599 9.89417C5.3273 9.89417 3.98267 11.2419 3.98267 12.9044C3.98267 14.5669 5.3273 15.9147 6.98599 15.9147Z" stroke="black" stroke-width="2" stroke-miterlimit="10" stroke-linecap="round" stroke-linejoin="round"/>
<path d="M33.0148 15.9147C34.6735 15.9147 36.0181 14.5669 36.0181 12.9044C36.0181 11.2419 34.6735 9.89417 33.0148 9.89417C31.3561 9.89417 30.0115 11.2419 30.0115 12.9044C30.0115 14.5669 31.3561 15.9147 33.0148 15.9147Z" stroke="black" stroke-width="2" stroke-miterlimit="10" stroke-linecap="round" stroke-linejoin="round"/>
<path d="M31.5129 5.47832C31.5129 5.47832 37.5196 5.47832 40.1225 5.27832" stroke="black" stroke-miterlimit="10" stroke-linecap="round" stroke-linejoin="round"/>
<path d="M30.9123 1.16382C30.9123 1.16382 33.5152 3.47167 34.2159 5.4785" stroke="black" stroke-miterlimit="10" stroke-linecap="round" stroke-linejoin="round"/>
</g>
</svg>
