<svg width="42" height="42" viewBox="0 0 42 42" fill="none" xmlns="http://www.w3.org/2000/svg">
<g opacity="0.35">
<path d="M21 41C32.0457 41 41 32.0457 41 21C41 9.9543 32.0457 1 21 1C9.9543 1 1 9.9543 1 21C1 32.0457 9.9543 41 21 41Z" stroke="black" stroke-width="2" stroke-miterlimit="10" stroke-linejoin="round"/>
<path d="M21 34C28.1797 34 34 28.1797 34 21C34 13.8203 28.1797 8 21 8C13.8203 8 8 13.8203 8 21C8 28.1797 13.8203 34 21 34Z" stroke="black" stroke-miterlimit="10" stroke-linejoin="round"/>
<path d="M19.8 3.5C20.2 3.5 20.6 3.5 21 3.5" stroke="black" stroke-miterlimit="10" stroke-linecap="round" stroke-linejoin="round"/>
<path d="M13.2 5.30005C14.6 4.60005 16.1 4.10005 17.7 3.80005" stroke="black" stroke-miterlimit="10" stroke-linecap="round" stroke-linejoin="round"/>
<path d="M10.3 7.10005C10.7 6.80005 11.1 6.50005 11.5 6.30005" stroke="black" stroke-miterlimit="10" stroke-linecap="round" stroke-linejoin="round"/>
<path d="M3.5 21C3.5 16.9 4.9 13.1 7.3 10.1" stroke="black" stroke-miterlimit="10" stroke-linecap="round" stroke-linejoin="round"/>
<path d="M17.4001 38.1C17.0001 38 16.5001 37.9 16.1001 37.8" stroke="black" stroke-miterlimit="10" stroke-linecap="round" stroke-linejoin="round"/>
<path d="M29.2001 36.4C26.7001 37.7 23.9001 38.5 21.0001 38.5C20.9001 38.5 20.7001 38.5 20.6001 38.5" stroke="black" stroke-miterlimit="10" stroke-linecap="round" stroke-linejoin="round"/>
<path d="M35.4 31C34.9 31.8 34.3 32.5 33.7 33.1" stroke="black" stroke-miterlimit="10" stroke-linecap="round" stroke-linejoin="round"/>
<path d="M37.4001 27.1C37.2001 27.6 37 28.1 36.8 28.6" stroke="black" stroke-miterlimit="10" stroke-linecap="round" stroke-linejoin="round"/>
<path d="M31.2 13.4L25.9 18C25.7 18.2 25.5 18.5 25.5 18.8V21.6C25.5 22 25.7 22.4 26.1 22.5L27.1 22.9C27.3 23 27.6 23 27.9 22.9L33.6 20.8" stroke="black" stroke-miterlimit="10" stroke-linecap="round" stroke-linejoin="round"/>
<path d="M17.1001 8.80005L19.8001 15.3C19.9001 15.6 20.1001 15.8 20.4001 15.9L23.1001 16.8C23.5001 16.9 23.9001 16.8 24.2001 16.5L24.9001 15.7C25.1001 15.5 25.2001 15.2 25.2001 15L25.0001 8.90005" stroke="black" stroke-miterlimit="10" stroke-linecap="round" stroke-linejoin="round"/>
<path d="M8.3999 20.9L15.3999 20.3C15.6999 20.3 15.9999 20.1 16.0999 19.9L17.6999 17.6C17.8999 17.3 17.9999 16.8 17.6999 16.5L17.1999 15.6C17.0999 15.4 16.8999 15.2 16.5999 15.1L10.6999 13.4" stroke="black" stroke-miterlimit="10" stroke-linecap="round" stroke-linejoin="round"/>
<path d="M17.1 32.8L18.7 26C18.8 25.7 18.7 25.4 18.5 25.2L16.9 22.9C16.7 22.6 16.2 22.4 15.8 22.5L14.8 22.7C14.5 22.8 14.3 22.9 14.2 23.1L10.8 28.2" stroke="black" stroke-miterlimit="10" stroke-linecap="round" stroke-linejoin="round"/>
<path d="M31.1999 28.2L25.1999 24.6C24.8999 24.4 24.5999 24.4 24.3999 24.5L21.6999 25.4C21.2999 25.5 20.9999 25.9 20.9999 26.3L20.8999 27.4C20.8999 27.7 20.9999 27.9 21.0999 28.1L24.8999 32.9" stroke="black" stroke-miterlimit="10" stroke-linecap="round" stroke-linejoin="round"/>
<path d="M21 18.8C21.9 18.8 22.6 19.4001 22.9 20.2001C23.1 20.7001 23 21.3001 22.8 21.7001C22.6 22.2001 22.1 22.5001 21.6 22.7001C21.4 22.8001 21.2 22.8 21 22.8C20.1 22.8 19.4 22.2 19.1 21.4C18.8 20.4 19.3 19.2 20.4 18.9C20.6 18.9 20.8 18.8 21 18.8ZM21 17.8C20.7 17.8 20.4 17.8 20.1 17.9C18.5 18.4 17.7 20.1001 18.2 21.7001C18.6 23.0001 19.8 23.8 21.1 23.8C21.4 23.8 21.7 23.8001 22 23.7001C23.6 23.2001 24.4 21.5 23.9 19.9C23.4 18.6 22.3 17.8 21 17.8Z" fill="black"/>
</g>
</svg>
