<svg width="42" height="42" viewBox="0 0 42 42" fill="none" xmlns="http://www.w3.org/2000/svg">
<g opacity="0.35">
<path d="M16 1V5H11L9 7H6C5.4 7 5 7.4 5 8L5.0999 24C5.0999 24.6 5.4999 25 6.0999 25H11L16 30H30.2001C31.8001 30 33.0001 28.7 33.0001 27.2L33 25H36.0001V28H38.0001C39.7001 28 41.0001 26.7 41.0001 25V12C41.0001 10.3 39.7001 9 38.0001 9H36.0001V12H33.0001V11.6C33.0001 10 31.5 9 30 9V6C30 5.4 29.6 5 29 5H21V1" stroke="black" stroke-width="2" stroke-miterlimit="10" stroke-linecap="round" stroke-linejoin="round"/>
<path d="M26.0001 1H10.6001" stroke="black" stroke-width="2" stroke-miterlimit="10" stroke-linecap="round" stroke-linejoin="round"/>
<path d="M1 9.5V21.7" stroke="black" stroke-width="2" stroke-miterlimit="10" stroke-linecap="round" stroke-linejoin="round"/>
<path d="M1 17.4H4.6" stroke="black" stroke-width="2" stroke-miterlimit="10" stroke-linecap="round" stroke-linejoin="round"/>
<path d="M1 13.8H4.6" stroke="black" stroke-width="2" stroke-miterlimit="10" stroke-linecap="round" stroke-linejoin="round"/>
<path d="M36.5 11.9V24.7" stroke="black" stroke-miterlimit="10" stroke-linecap="round" stroke-linejoin="round"/>
<path d="M32.5 11.9V24.7M29.5 7.5H12.5M30.5 9.5H20.5" stroke="black" stroke-miterlimit="10" stroke-linecap="round" stroke-linejoin="round"/>
<path d="M20 30V36C20 38.7614 22.2386 41 25 41H41V37H25C24.4477 37 24 36.5523 24 36V30" stroke="black" stroke-width="2" stroke-miterlimit="10" stroke-linecap="round" stroke-linejoin="round"/>
<path d="M23.5 29.5V25V21.4H28C28.8 21.4 29.5 20.7 29.5 19.9V14C29.5 13.2 28.8 12.5 28 12.5C27.2 12.5 26.5 13.2 26.5 14V18.4H23.5V14C23.5 13.2 22.8 12.5 22 12.5C21.2 12.5 20.5 13.2 20.5 14V18.4H17.5V14C17.5 13.2 16.8 12.5 16 12.5C15.2 12.5 14.5 13.2 14.5 14V18.4H11.5V14C11.5 13.2 10.8 12.5 10 12.5C9.2 12.5 8.5 13.2 8.5 14V19.9C8.5 20.7 9.2 21.4 10 21.4H14.5V22.2C14.5 22.6 14.7 23 14.9 23.3L17.6 26C17.9 26.3 18.3 26.4 18.7 26.4H20.5V29.4" stroke="black" stroke-miterlimit="10"/>
<path d="M17.5 21.7V21.5H20.5V23.5H19.4L17.5 21.7Z" stroke="black" stroke-miterlimit="10"/>
<path d="M17.5 18.2V21.2" stroke="black" stroke-miterlimit="10"/>
<path d="M14.5 18.2V21.2" stroke="black" stroke-miterlimit="10"/>
<path d="M20.5 18.2V21.2" stroke="black" stroke-miterlimit="10"/>
<path d="M23.5 18.2V21.2" stroke="black" stroke-miterlimit="10"/>
</g>
</svg>
