<svg width="44" height="42" viewBox="0 0 44 42" fill="none" xmlns="http://www.w3.org/2000/svg">
<g opacity="0.35">
<path d="M17.4623 8.73193C17.4623 8.73193 16.9636 15.3254 16.9636 21.0198C16.9636 26.7142 17.1631 30.3106 17.1631 30.3106C17.1631 30.3106 18.8585 35.3057 18.8585 36.5045C18.8585 37.7033 18.8585 40.7004 18.8585 40.7004" stroke="black" stroke-miterlimit="10" stroke-linecap="round" stroke-linejoin="round"/>
<path d="M11.9771 41C3.0013 41 2.00399 40.001 2.00399 39.3017C2.00399 38.6024 2.00399 37.3036 2.00399 36.1048C2.00399 34.906 1.90426 33.4075 2.7021 32.1088C3.40022 30.8101 3.9986 29.911 3.9986 29.911C3.9986 29.911 3.59968 29.911 3.40022 29.7111C3.30049 29.6112 2.7021 29.5113 2.7021 23.1177C2.7021 16.724 4.49726 11.2294 4.99591 10.2304C5.49456 9.23138 6.39214 8.73187 7.78837 8.23236C7.28972 8.03256 6.99053 7.33325 6.99053 6.63394C6.99053 3.2373 8.38676 1.83868 8.98514 1.33917C9.58353 0.839665 10.88 1.03947 11.9771 1.03947C13.0741 1.03947 14.3706 0.939566 14.969 1.43907C15.5674 1.93858 16.9636 3.3372 16.9636 6.73384C16.9636 7.43315 16.6644 8.13246 16.1658 8.23236C17.4623 8.63197 18.3598 9.13147 18.9582 10.2304C19.5566 11.3293 21.3518 16.724 21.3518 23.1177C21.3518 29.5113 20.7534 29.6112 20.6536 29.7111C20.3544 29.911 20.0553 29.911 20.0553 29.911C20.0553 29.911 20.6536 30.8101 21.3518 32.1088C22.1496 33.4075 22.0499 34.906 22.0499 36.1048C22.0499 37.3036 22.0499 38.6024 22.0499 39.3017C21.9501 40.001 20.9528 41 11.9771 41Z" stroke="black" stroke-width="2" stroke-miterlimit="10" stroke-linecap="round" stroke-linejoin="round"/>
<path d="M7.78833 8.23271C7.78833 8.23271 9.58348 8.03271 11.977 8.03271C14.3706 8.03271 16.1657 8.23271 16.1657 8.23271" stroke="black" stroke-miterlimit="10" stroke-linecap="round" stroke-linejoin="round"/>
<path d="M3.99854 29.4114C3.99854 29.4114 4.69665 30.0114 11.977 30.0114C19.2573 30.0114 19.9555 29.4114 19.9555 29.4114" stroke="black" stroke-miterlimit="10" stroke-linecap="round" stroke-linejoin="round"/>
<path d="M2.70283 32.1089C2.20418 33.2078 1.40634 36.5045 5.09637 36.5045C8.78641 36.5045 15.2689 36.5045 18.9589 36.5045C22.649 36.5045 21.7514 33.3077 21.3525 32.1089" stroke="black" stroke-miterlimit="10" stroke-linecap="round" stroke-linejoin="round"/>
<path d="M6.49193 8.73193C6.49193 8.73193 6.99059 15.3254 6.99059 21.0198C6.99059 26.7142 6.79113 30.3106 6.79113 30.3106C6.79113 30.3106 5.0957 35.3057 5.0957 36.5045C5.0957 37.7033 5.0957 40.7004 5.0957 40.7004" stroke="black" stroke-miterlimit="10" stroke-linecap="round" stroke-linejoin="round"/>
<path d="M6.89087 15.1255C6.89087 15.1255 9.18468 15.5255 11.9771 15.5255C14.7696 15.5255 17.0634 15.1255 17.0634 15.1255" stroke="black" stroke-miterlimit="10" stroke-linecap="round" stroke-linejoin="round"/>
<path d="M6.99048 18.5222C6.99048 18.5222 9.18455 18.8222 11.977 18.8222C14.7695 18.8222 16.9636 18.5222 16.9636 18.5222" stroke="black" stroke-miterlimit="10" stroke-linecap="round" stroke-linejoin="round"/>
<path d="M37.4083 8.73193C37.4083 8.73193 36.9097 15.3254 36.9097 21.0198C36.9097 26.7142 37.1091 30.3106 37.1091 30.3106C37.1091 30.3106 38.8046 35.3057 38.8046 36.5045C38.8046 37.7033 38.8046 40.7004 38.8046 40.7004" stroke="black" stroke-miterlimit="10" stroke-linecap="round" stroke-linejoin="round"/>
<path d="M31.9232 41C22.9475 41 21.9502 40.0009 21.9502 39.3016C21.9502 38.6023 21.9502 37.3036 21.9502 36.1048C21.9502 34.906 21.8504 33.4074 22.6483 32.1087C23.4461 30.81 23.9448 29.9109 23.9448 29.9109C23.9448 29.9109 23.5458 29.9109 23.3464 29.7111C23.2467 29.6112 22.6483 29.5113 22.6483 23.1176C22.6483 16.7239 24.4434 11.2294 25.0418 10.2303C25.6402 9.23133 26.438 8.73182 27.8343 8.23232C27.2359 8.03251 26.9367 7.3332 26.9367 6.63389C26.9367 3.23725 28.3329 1.83863 28.9313 1.33912C29.5297 0.939519 30.8262 1.03942 31.9232 1.03942C33.0203 1.03942 34.3168 0.939519 34.9152 1.43903C35.5135 1.93853 36.9098 3.33715 36.9098 6.7338C36.9098 7.43311 36.6106 8.13241 36.1119 8.23232C37.4084 8.63192 38.306 9.13143 38.9044 10.2303C39.5028 11.3293 41.2979 16.7239 41.2979 23.1176C41.2979 29.5113 40.6995 29.6112 40.5998 29.7111C40.3006 29.9109 40.0014 29.9109 40.0014 29.9109C40.0014 29.9109 40.5998 30.81 41.2979 32.1087C42.0958 33.4074 41.996 34.906 41.996 36.1048C41.996 37.3036 41.996 38.6023 41.996 39.3016C41.8963 40.0009 40.899 41 31.9232 41Z" stroke="black" stroke-width="2" stroke-miterlimit="10" stroke-linecap="round" stroke-linejoin="round"/>
<path d="M27.7344 8.23271C27.7344 8.23271 29.5295 8.03271 31.9231 8.03271C34.3166 8.03271 36.1118 8.23271 36.1118 8.23271" stroke="black" stroke-miterlimit="10" stroke-linecap="round" stroke-linejoin="round"/>
<path d="M23.9446 29.4114C23.9446 29.4114 24.6427 30.0114 31.923 30.0114C39.2034 30.0114 39.9015 29.4114 39.9015 29.4114" stroke="black" stroke-miterlimit="10" stroke-linecap="round" stroke-linejoin="round"/>
<path d="M22.6481 32.1089C22.1495 33.2078 21.3516 36.5045 25.0417 36.5045C28.7317 36.5045 35.2142 36.5045 38.9043 36.5045C42.5943 36.5045 41.6967 33.3077 41.2978 32.1089" stroke="black" stroke-miterlimit="10" stroke-linecap="round" stroke-linejoin="round"/>
<path d="M26.438 8.73193C26.438 8.73193 26.9366 15.3254 26.9366 21.0198C26.9366 26.7142 26.7372 30.3106 26.7372 30.3106C26.7372 30.3106 25.0417 35.3057 25.0417 36.5045C25.0417 37.7033 25.0417 40.7004 25.0417 40.7004" stroke="black" stroke-miterlimit="10" stroke-linecap="round" stroke-linejoin="round"/>
<path d="M26.8369 15.1255C26.8369 15.1255 29.1307 15.5255 31.9232 15.5255C34.7156 15.5255 37.0094 15.1255 37.0094 15.1255" stroke="black" stroke-miterlimit="10" stroke-linecap="round" stroke-linejoin="round"/>
<path d="M26.9365 18.5222C26.9365 18.5222 29.1306 18.8222 31.9231 18.8222C34.7155 18.8222 36.9096 18.5222 36.9096 18.5222" stroke="black" stroke-miterlimit="10" stroke-linecap="round" stroke-linejoin="round"/>
</g>
</svg>
