<?xml version="1.0" encoding="UTF-8"?>
<!DOCTYPE svg PUBLIC "-//W3C//DTD SVG 1.1//EN" "http://www.w3.org/Graphics/SVG/1.1/DTD/svg11.dtd">
<!-- Creator: CorelDRAW X8 -->
<svg xmlns="http://www.w3.org/2000/svg" xml:space="preserve" width="414px" height="414px" version="1.1" style="shape-rendering:geometricPrecision; text-rendering:geometricPrecision; image-rendering:optimizeQuality; fill-rule:evenodd; clip-rule:evenodd"
viewBox="0 0 414 414"
 xmlns:xlink="http://www.w3.org/1999/xlink">
 <defs>
  <style type="text/css">
   <![CDATA[
    .fil1 {fill:#FEFEFE}
    .fil0 {fill:#FF8351}
   ]]>
  </style>
 </defs>
 <g id="Слой_x0020_1">
  <metadata id="CorelCorpID_0Corel-Layer"/>
  <path class="fil0" d="M207 1c113,0 206,93 206,206 0,113 -93,206 -206,206 -113,0 -206,-93 -206,-206 0,-113 93,-206 206,-206z"/>
  <g id="_2550466809584">
   <g>
    <path class="fil1" d="M260 144c9,0 15,-6 15,-15l0 -15c0,-9 -6,-16 -15,-16 -8,0 -15,7 -15,16l0 15c0,9 7,15 15,15z"/>
    <path class="fil1" d="M314 124l-31 0 0 8c0,13 -10,23 -22,23 -13,0 -23,-10 -23,-23l0 -8 -62 0 0 8c0,13 -10,23 -22,23 -13,0 -23,-10 -23,-23l0 -8 -31 0 0 192 15 0 184 0 15 0 0 -192zm-15 176l-184 0 0 -122 184 0 0 122 0 0z"/>
    <path class="fil1" d="M153 144c9,0 15,-6 15,-15l0 -15c0,-9 -6,-16 -15,-16 -8,0 -15,7 -15,16l0 15c0,9 7,15 15,15z"/>
    <rect class="fil1" x="176" y="194" width="24.0895" height="21.2636"/>
    <rect class="fil1" x="215" y="194" width="24.1118" height="21.2636"/>
    <rect class="fil1" x="252" y="194" width="24.0895" height="21.2636"/>
    <rect class="fil1" x="176" y="230" width="24.0895" height="21.2488"/>
    <rect class="fil1" x="215" y="230" width="24.1118" height="21.2488"/>
    <rect class="fil1" x="252" y="230" width="24.0895" height="21.2488"/>
    <rect class="fil1" x="176" y="266" width="24.0895" height="21.2488"/>
    <rect class="fil1" x="138" y="230" width="24.0746" height="21.2488"/>
    <rect class="fil1" x="138" y="266" width="24.0746" height="21.2488"/>
    <rect class="fil1" x="215" y="266" width="24.1118" height="21.2488"/>
    <rect class="fil1" x="252" y="266" width="24.0895" height="21.2488"/>
   </g>
   <g>
   </g>
   <g>
   </g>
   <g>
   </g>
   <g>
   </g>
   <g>
   </g>
   <g>
   </g>
   <g>
   </g>
   <g>
   </g>
   <g>
   </g>
   <g>
   </g>
   <g>
   </g>
   <g>
   </g>
   <g>
   </g>
   <g>
   </g>
   <g>
   </g>
  </g>
 </g>
</svg>
